<svg width="486" height="140" viewBox="0 0 486 140" fill="none" xmlns="http://www.w3.org/2000/svg">
<path d="M69.5 113.438H139V139.5H95.5625C81.1686 139.5 69.5 127.831 69.5 113.438Z" fill="#FABFBA"/>
<path d="M69.5 113.438L0 113.438L2.27846e-06 87.375L43.4375 87.375C57.8314 87.375 69.5 99.0436 69.5 113.438Z" fill="#FABFBA"/>
<path d="M69.5 75.7917H139V101.854H95.5625C81.1686 101.854 69.5 90.1856 69.5 75.7917Z" fill="#FABFBA"/>
<path d="M69.5 75.7917L0 75.7917L2.27846e-06 49.7292L43.4375 49.7292C57.8314 49.7292 69.5 61.3978 69.5 75.7917Z" fill="#FABFBA"/>
<path d="M139 21.2997C130.689 25.6398 124.419 33.3769 124.419 42.4387V101.854H99.4V47.4102C99.3999 30.9242 86.0339 17.5593 69.5481 17.5583C54.1231 17.559 39.8601 29.4583 39.8601 44.2684V75.7917H14.8411V44.6162H14.7054C14.7054 34.9254 8.54148 26.3175 0 21.5372V0.5H139V21.2997Z" fill="#FF5F46"/>
<path d="M185.62 63V21H196.42C201.3 21 205.32 21.86 208.48 23.58C211.68 25.26 214.04 27.68 215.56 30.84C217.12 33.96 217.9 37.72 217.9 42.12C217.9 46.44 217.12 50.16 215.56 53.28C214.04 56.4 211.68 58.8 208.48 60.48C205.32 62.16 201.3 63 196.42 63H185.62ZM190.66 58.8H196.3C200.34 58.8 203.56 58.14 205.96 56.82C208.36 55.46 210.08 53.54 211.12 51.06C212.16 48.54 212.68 45.56 212.68 42.12C212.68 38.6 212.16 35.58 211.12 33.06C210.08 30.54 208.36 28.6 205.96 27.24C203.56 25.88 200.34 25.2 196.3 25.2H190.66V58.8ZM233.144 63.72C230.744 63.72 228.744 63.28 227.144 62.4C225.544 61.48 224.344 60.28 223.544 58.8C222.744 57.28 222.344 55.66 222.344 53.94C222.344 51.86 222.864 50.1 223.904 48.66C224.984 47.18 226.484 46.06 228.404 45.3C230.324 44.54 232.564 44.16 235.124 44.16H242.984C242.984 42.12 242.744 40.42 242.264 39.06C241.784 37.7 241.004 36.68 239.924 36C238.844 35.32 237.404 34.98 235.604 34.98C233.804 34.98 232.264 35.44 230.984 36.36C229.704 37.24 228.904 38.56 228.584 40.32H223.424C223.664 38.24 224.364 36.5 225.524 35.1C226.684 33.66 228.144 32.58 229.904 31.86C231.704 31.1 233.604 30.72 235.604 30.72C238.444 30.72 240.784 31.24 242.624 32.28C244.464 33.28 245.824 34.7 246.704 36.54C247.584 38.34 248.024 40.48 248.024 42.96V63H243.524L243.224 57.6C242.824 58.44 242.304 59.24 241.664 60C241.064 60.72 240.344 61.36 239.504 61.92C238.664 62.48 237.704 62.92 236.624 63.24C235.584 63.56 234.424 63.72 233.144 63.72ZM233.864 59.46C235.184 59.46 236.404 59.16 237.524 58.56C238.644 57.96 239.604 57.16 240.404 56.16C241.244 55.12 241.884 53.96 242.324 52.68C242.764 51.4 242.984 50.06 242.984 48.66V48.06H235.544C233.664 48.06 232.124 48.3 230.924 48.78C229.764 49.26 228.924 49.94 228.404 50.82C227.884 51.66 227.624 52.62 227.624 53.7C227.624 54.86 227.864 55.88 228.344 56.76C228.824 57.6 229.524 58.26 230.444 58.74C231.404 59.22 232.544 59.46 233.864 59.46ZM265.97 63C264.17 63 262.61 62.72 261.29 62.16C259.97 61.6 258.95 60.66 258.23 59.34C257.55 57.98 257.21 56.16 257.21 53.88V35.7H251.69V31.44H257.21L257.87 23.58H262.25V31.44H271.19V35.7H262.25V53.88C262.25 55.76 262.63 57.04 263.39 57.72C264.15 58.36 265.49 58.68 267.41 58.68H271.07V63H265.97ZM286.145 63.72C283.745 63.72 281.745 63.28 280.145 62.4C278.545 61.48 277.345 60.28 276.545 58.8C275.745 57.28 275.345 55.66 275.345 53.94C275.345 51.86 275.865 50.1 276.905 48.66C277.985 47.18 279.485 46.06 281.405 45.3C283.325 44.54 285.565 44.16 288.125 44.16H295.985C295.985 42.12 295.745 40.42 295.265 39.06C294.785 37.7 294.005 36.68 292.925 36C291.845 35.32 290.405 34.98 288.605 34.98C286.805 34.98 285.265 35.44 283.985 36.36C282.705 37.24 281.905 38.56 281.585 40.32H276.425C276.665 38.24 277.365 36.5 278.525 35.1C279.685 33.66 281.145 32.58 282.905 31.86C284.705 31.1 286.605 30.72 288.605 30.72C291.445 30.72 293.785 31.24 295.625 32.28C297.465 33.28 298.825 34.7 299.705 36.54C300.585 38.34 301.025 40.48 301.025 42.96V63H296.525L296.225 57.6C295.825 58.44 295.305 59.24 294.665 60C294.065 60.72 293.345 61.36 292.505 61.92C291.665 62.48 290.705 62.92 289.625 63.24C288.585 63.56 287.425 63.72 286.145 63.72ZM286.865 59.46C288.185 59.46 289.405 59.16 290.525 58.56C291.645 57.96 292.605 57.16 293.405 56.16C294.245 55.12 294.885 53.96 295.325 52.68C295.765 51.4 295.985 50.06 295.985 48.66V48.06H288.545C286.665 48.06 285.125 48.3 283.925 48.78C282.765 49.26 281.925 49.94 281.405 50.82C280.885 51.66 280.625 52.62 280.625 53.7C280.625 54.86 280.865 55.88 281.345 56.76C281.825 57.6 282.525 58.26 283.445 58.74C284.405 59.22 285.545 59.46 286.865 59.46ZM323.272 63.72C321.352 63.72 319.692 63.44 318.292 62.88C316.932 62.28 315.772 61.54 314.812 60.66C313.892 59.78 313.132 58.92 312.532 58.08L312.112 63H307.552V19.8H312.592V36.42C313.552 34.54 314.972 33.12 316.852 32.16C318.732 31.2 320.832 30.72 323.152 30.72C326.032 30.72 328.552 31.42 330.712 32.82C332.872 34.22 334.552 36.16 335.752 38.64C336.952 41.08 337.552 43.9 337.552 47.1C337.552 50.26 336.952 53.1 335.752 55.62C334.552 58.14 332.872 60.12 330.712 61.56C328.592 63 326.112 63.72 323.272 63.72ZM322.612 59.34C324.492 59.34 326.152 58.86 327.592 57.9C329.072 56.9 330.232 55.5 331.072 53.7C331.952 51.86 332.392 49.7 332.392 47.22C332.392 44.74 331.952 42.6 331.072 40.8C330.232 38.96 329.072 37.56 327.592 36.6C326.152 35.6 324.492 35.1 322.612 35.1C320.612 35.1 318.872 35.6 317.392 36.6C315.912 37.56 314.772 38.96 313.972 40.8C313.172 42.6 312.772 44.74 312.772 47.22C312.772 49.7 313.172 51.86 313.972 53.7C314.772 55.5 315.912 56.9 317.392 57.9C318.872 58.86 320.612 59.34 322.612 59.34ZM343.076 63V31.44H347.636L347.996 37.2C348.716 35.76 349.656 34.56 350.816 33.6C351.976 32.64 353.376 31.92 355.016 31.44C356.696 30.96 358.576 30.72 360.656 30.72V36H357.536C356.336 36 355.176 36.16 354.056 36.48C352.936 36.8 351.916 37.32 350.996 38.04C350.116 38.76 349.416 39.74 348.896 40.98C348.376 42.22 348.116 43.78 348.116 45.66V63H343.076ZM365.135 63V31.44H370.175V63H365.135ZM367.655 25.44C366.655 25.44 365.815 25.12 365.135 24.48C364.495 23.8 364.175 22.96 364.175 21.96C364.175 20.96 364.495 20.16 365.135 19.56C365.815 18.92 366.655 18.6 367.655 18.6C368.615 18.6 369.435 18.92 370.115 19.56C370.795 20.16 371.135 20.96 371.135 21.96C371.135 22.96 370.795 23.8 370.115 24.48C369.435 25.12 368.615 25.44 367.655 25.44ZM390.948 63.72C388.068 63.72 385.508 63.04 383.268 61.68C381.028 60.28 379.268 58.34 377.988 55.86C376.708 53.38 376.068 50.5 376.068 47.22C376.068 43.9 376.708 41.02 377.988 38.58C379.268 36.1 381.028 34.18 383.268 32.82C385.508 31.42 388.068 30.72 390.948 30.72C394.548 30.72 397.548 31.68 399.948 33.6C402.388 35.52 403.948 38.1 404.628 41.34H399.468C399.028 39.34 398.008 37.8 396.408 36.72C394.848 35.6 393.008 35.04 390.888 35.04C389.048 35.04 387.388 35.5 385.908 36.42C384.468 37.34 383.328 38.7 382.488 40.5C381.648 42.3 381.228 44.54 381.228 47.22C381.228 49.22 381.468 51 381.948 52.56C382.428 54.08 383.088 55.36 383.928 56.4C384.808 57.4 385.828 58.16 386.988 58.68C388.188 59.2 389.488 59.46 390.888 59.46C392.328 59.46 393.628 59.22 394.788 58.74C395.988 58.22 396.988 57.48 397.788 56.52C398.628 55.56 399.188 54.42 399.468 53.1H404.628C403.988 56.26 402.428 58.82 399.948 60.78C397.508 62.74 394.508 63.72 390.948 63.72ZM428.697 63L414.357 45.96L427.857 31.44H434.037L418.617 47.76L418.677 44.16L435.117 63H428.697ZM410.157 63V19.8H415.197V63H410.157ZM448.292 63.72C445.452 63.72 443.092 63.3 441.212 62.46C439.372 61.58 437.972 60.38 437.012 58.86C436.052 57.3 435.472 55.5 435.272 53.46H440.432C440.592 54.54 440.952 55.54 441.512 56.46C442.112 57.34 442.972 58.06 444.092 58.62C445.212 59.18 446.632 59.46 448.352 59.46C449.712 59.46 450.872 59.26 451.832 58.86C452.792 58.42 453.512 57.82 453.992 57.06C454.512 56.3 454.772 55.42 454.772 54.42C454.772 53.1 454.472 52.08 453.872 51.36C453.312 50.6 452.472 50.04 451.352 49.68C450.272 49.28 448.912 48.98 447.272 48.78C445.512 48.54 443.952 48.2 442.592 47.76C441.232 47.32 440.072 46.74 439.112 46.02C438.192 45.3 437.492 44.4 437.012 43.32C436.532 42.24 436.292 40.96 436.292 39.48C436.292 37.76 436.752 36.24 437.672 34.92C438.592 33.6 439.892 32.58 441.572 31.86C443.292 31.1 445.312 30.72 447.632 30.72C451.032 30.72 453.712 31.5 455.672 33.06C457.672 34.62 458.852 36.84 459.212 39.72H454.232C454.032 38.24 453.352 37.08 452.192 36.24C451.032 35.4 449.492 34.98 447.572 34.98C445.532 34.98 443.992 35.36 442.952 36.12C441.912 36.88 441.392 37.88 441.392 39.12C441.392 40.04 441.612 40.88 442.052 41.64C442.532 42.36 443.332 42.98 444.452 43.5C445.572 43.98 447.072 44.34 448.952 44.58C451.312 44.86 453.312 45.32 454.952 45.96C456.592 46.56 457.832 47.5 458.672 48.78C459.552 50.06 459.972 51.8 459.932 54C459.932 56.08 459.432 57.84 458.432 59.28C457.472 60.72 456.112 61.82 454.352 62.58C452.632 63.34 450.612 63.72 448.292 63.72ZM185.26 117V75H192.46V111.36H211.18V117H185.26ZM226.23 117.72C223.75 117.72 221.69 117.3 220.05 116.46C218.41 115.62 217.19 114.5 216.39 113.1C215.59 111.7 215.19 110.18 215.19 108.54C215.19 106.62 215.67 104.96 216.63 103.56C217.63 102.16 219.09 101.08 221.01 100.32C222.93 99.52 225.29 99.12 228.09 99.12H235.71C235.71 97.52 235.49 96.2 235.05 95.16C234.61 94.08 233.93 93.28 233.01 92.76C232.09 92.24 230.91 91.98 229.47 91.98C227.83 91.98 226.43 92.36 225.27 93.12C224.11 93.84 223.39 94.96 223.11 96.48H216.03C216.27 94.32 216.99 92.48 218.19 90.96C219.39 89.4 220.97 88.2 222.93 87.36C224.93 86.48 227.11 86.04 229.47 86.04C232.31 86.04 234.73 86.54 236.73 87.54C238.73 88.5 240.25 89.9 241.29 91.74C242.37 93.54 242.91 95.72 242.91 98.28V117H236.79L236.07 112.14C235.67 112.94 235.15 113.68 234.51 114.36C233.91 115.04 233.21 115.64 232.41 116.16C231.61 116.64 230.69 117.02 229.65 117.3C228.65 117.58 227.51 117.72 226.23 117.72ZM227.85 112.02C229.01 112.02 230.03 111.82 230.91 111.42C231.83 110.98 232.61 110.38 233.25 109.62C233.93 108.82 234.45 107.94 234.81 106.98C235.17 106.02 235.41 105 235.53 103.92V103.8H228.87C227.47 103.8 226.31 103.98 225.39 104.34C224.47 104.66 223.81 105.14 223.41 105.78C223.01 106.42 222.81 107.16 222.81 108C222.81 108.84 223.01 109.56 223.41 110.16C223.81 110.76 224.39 111.22 225.15 111.54C225.91 111.86 226.81 112.02 227.85 112.02ZM268.303 117L254.923 100.44L266.923 86.76H275.503L260.563 103.38V97.8L277.303 117H268.303ZM248.803 117V73.8H256.003V117H248.803ZM292.1 117.72C289.1 117.72 286.46 117.08 284.18 115.8C281.9 114.48 280.12 112.64 278.84 110.28C277.56 107.92 276.92 105.2 276.92 102.12C276.92 98.92 277.54 96.12 278.78 93.72C280.06 91.32 281.84 89.44 284.12 88.08C286.44 86.72 289.12 86.04 292.16 86.04C295.12 86.04 297.7 86.7 299.9 88.02C302.1 89.34 303.8 91.12 305 93.36C306.2 95.56 306.8 98.04 306.8 100.8C306.8 101.2 306.8 101.64 306.8 102.12C306.8 102.6 306.76 103.1 306.68 103.62H282.08V99H299.54C299.46 96.8 298.72 95.08 297.32 93.84C295.92 92.56 294.18 91.92 292.1 91.92C290.62 91.92 289.26 92.26 288.02 92.94C286.78 93.62 285.8 94.64 285.08 96C284.36 97.32 284 99 284 101.04V102.78C284 104.66 284.34 106.28 285.02 107.64C285.74 109 286.7 110.04 287.9 110.76C289.14 111.44 290.52 111.78 292.04 111.78C293.72 111.78 295.1 111.42 296.18 110.7C297.3 109.98 298.12 109.02 298.64 107.82H305.96C305.4 109.7 304.48 111.4 303.2 112.92C301.92 114.4 300.34 115.58 298.46 116.46C296.58 117.3 294.46 117.72 292.1 117.72ZM328.928 117.72C327.328 117.72 325.888 117.5 324.608 117.06C323.328 116.66 322.208 116.1 321.248 115.38C320.288 114.62 319.488 113.76 318.848 112.8L318.068 117H311.648V73.8H318.848V91.2C319.808 89.72 321.108 88.5 322.748 87.54C324.388 86.54 326.428 86.04 328.868 86.04C331.708 86.04 334.208 86.74 336.368 88.14C338.568 89.5 340.288 91.38 341.528 93.78C342.808 96.14 343.448 98.86 343.448 101.94C343.448 104.94 342.828 107.64 341.588 110.04C340.348 112.44 338.628 114.32 336.428 115.68C334.268 117.04 331.768 117.72 328.928 117.72ZM327.428 111.48C329.108 111.48 330.608 111.08 331.928 110.28C333.248 109.44 334.268 108.32 334.988 106.92C335.748 105.48 336.128 103.8 336.128 101.88C336.128 100 335.748 98.34 334.988 96.9C334.268 95.46 333.248 94.34 331.928 93.54C330.608 92.74 329.108 92.34 327.428 92.34C325.708 92.34 324.188 92.74 322.868 93.54C321.588 94.34 320.568 95.46 319.808 96.9C319.088 98.34 318.728 100 318.728 101.88C318.728 103.8 319.088 105.48 319.808 106.92C320.568 108.32 321.588 109.44 322.868 110.28C324.188 111.08 325.708 111.48 327.428 111.48ZM348.637 117V86.76H355.057L355.717 92.4C356.437 91.08 357.337 89.96 358.417 89.04C359.497 88.08 360.757 87.34 362.197 86.82C363.677 86.3 365.297 86.04 367.057 86.04V93.66H364.537C363.337 93.66 362.197 93.82 361.117 94.14C360.037 94.42 359.097 94.9 358.297 95.58C357.537 96.22 356.937 97.12 356.497 98.28C356.057 99.4 355.837 100.82 355.837 102.54V117H348.637ZM370.985 117V86.76H378.185V117H370.985ZM374.585 81.96C373.265 81.96 372.165 81.56 371.285 80.76C370.445 79.92 370.025 78.9 370.025 77.7C370.025 76.46 370.445 75.46 371.285 74.7C372.165 73.9 373.265 73.5 374.585 73.5C375.905 73.5 376.985 73.9 377.825 74.7C378.705 75.46 379.145 76.46 379.145 77.7C379.145 78.9 378.705 79.92 377.825 80.76C376.985 81.56 375.905 81.96 374.585 81.96ZM398.145 117.72C395.345 117.72 392.845 117.04 390.645 115.68C388.445 114.32 386.725 112.44 385.485 110.04C384.285 107.64 383.685 104.92 383.685 101.88C383.685 98.84 384.305 96.14 385.545 93.78C386.785 91.38 388.505 89.5 390.705 88.14C392.945 86.74 395.465 86.04 398.265 86.04C400.545 86.04 402.525 86.48 404.205 87.36C405.925 88.2 407.285 89.4 408.285 90.96V73.8H415.485V117H409.005L408.285 112.62C407.645 113.5 406.865 114.34 405.945 115.14C405.025 115.9 403.925 116.52 402.645 117C401.365 117.48 399.865 117.72 398.145 117.72ZM399.645 111.48C401.365 111.48 402.885 111.08 404.205 110.28C405.525 109.44 406.545 108.3 407.265 106.86C407.985 105.42 408.345 103.76 408.345 101.88C408.345 100 407.985 98.34 407.265 96.9C406.545 95.46 405.525 94.34 404.205 93.54C402.885 92.74 401.365 92.34 399.645 92.34C398.005 92.34 396.525 92.74 395.205 93.54C393.885 94.34 392.845 95.46 392.085 96.9C391.365 98.34 391.005 100 391.005 101.88C391.005 103.76 391.365 105.42 392.085 106.86C392.845 108.3 393.885 109.44 395.205 110.28C396.525 111.08 398.005 111.48 399.645 111.48ZM434.414 130.92C431.574 130.92 429.074 130.56 426.914 129.84C424.794 129.16 423.134 128.1 421.934 126.66C420.774 125.26 420.194 123.5 420.194 121.38C420.194 120.14 420.494 118.92 421.094 117.72C421.734 116.56 422.674 115.48 423.914 114.48C425.194 113.44 426.814 112.54 428.774 111.78L431.954 115.26C430.034 115.94 428.694 116.76 427.934 117.72C427.174 118.68 426.794 119.66 426.794 120.66C426.794 121.7 427.114 122.56 427.754 123.24C428.434 123.96 429.334 124.5 430.454 124.86C431.614 125.22 432.914 125.4 434.354 125.4C435.754 125.4 436.974 125.2 438.014 124.8C439.054 124.44 439.854 123.92 440.414 123.24C441.014 122.56 441.314 121.74 441.314 120.78C441.314 119.58 440.894 118.6 440.054 117.84C439.214 117.12 437.554 116.68 435.074 116.52C432.954 116.36 431.094 116.14 429.494 115.86C427.894 115.54 426.514 115.18 425.354 114.78C424.234 114.38 423.274 113.94 422.474 113.46C421.674 112.94 421.014 112.42 420.494 111.9V110.52L426.794 103.92L432.134 105.66L425.054 112.56L426.914 109.08C427.314 109.36 427.714 109.62 428.114 109.86C428.554 110.1 429.094 110.32 429.734 110.52C430.414 110.68 431.294 110.84 432.374 111C433.454 111.16 434.854 111.32 436.574 111.48C439.254 111.68 441.434 112.16 443.114 112.92C444.794 113.68 446.034 114.7 446.834 115.98C447.634 117.26 448.034 118.8 448.034 120.6C448.034 122.36 447.534 124.02 446.534 125.58C445.574 127.14 444.094 128.42 442.094 129.42C440.094 130.42 437.534 130.92 434.414 130.92ZM434.414 107.94C431.894 107.94 429.714 107.46 427.874 106.5C426.074 105.5 424.694 104.18 423.734 102.54C422.774 100.86 422.294 99.02 422.294 97.02C422.294 94.98 422.774 93.14 423.734 91.5C424.694 89.86 426.074 88.54 427.874 87.54C429.714 86.54 431.894 86.04 434.414 86.04C436.934 86.04 439.094 86.54 440.894 87.54C442.694 88.54 444.074 89.86 445.034 91.5C445.994 93.14 446.474 94.98 446.474 97.02C446.474 99.02 445.994 100.86 445.034 102.54C444.074 104.18 442.694 105.5 440.894 106.5C439.094 107.46 436.934 107.94 434.414 107.94ZM434.414 102.36C436.134 102.36 437.514 101.9 438.554 100.98C439.594 100.06 440.114 98.74 440.114 97.02C440.114 95.3 439.594 94 438.554 93.12C437.514 92.2 436.134 91.74 434.414 91.74C432.694 91.74 431.294 92.2 430.214 93.12C429.134 94 428.594 95.3 428.594 97.02C428.594 98.74 429.134 100.06 430.214 100.98C431.294 101.9 432.694 102.36 434.414 102.36ZM439.394 92.04L438.014 86.76H450.434V91.26L439.394 92.04ZM467.98 117.72C464.98 117.72 462.34 117.08 460.06 115.8C457.78 114.48 456 112.64 454.72 110.28C453.44 107.92 452.8 105.2 452.8 102.12C452.8 98.92 453.42 96.12 454.66 93.72C455.94 91.32 457.72 89.44 460 88.08C462.32 86.72 465 86.04 468.04 86.04C471 86.04 473.58 86.7 475.78 88.02C477.98 89.34 479.68 91.12 480.88 93.36C482.08 95.56 482.68 98.04 482.68 100.8C482.68 101.2 482.68 101.64 482.68 102.12C482.68 102.6 482.64 103.1 482.56 103.62H457.96V99H475.42C475.34 96.8 474.6 95.08 473.2 93.84C471.8 92.56 470.06 91.92 467.98 91.92C466.5 91.92 465.14 92.26 463.9 92.94C462.66 93.62 461.68 94.64 460.96 96C460.24 97.32 459.88 99 459.88 101.04V102.78C459.88 104.66 460.22 106.28 460.9 107.64C461.62 109 462.58 110.04 463.78 110.76C465.02 111.44 466.4 111.78 467.92 111.78C469.6 111.78 470.98 111.42 472.06 110.7C473.18 109.98 474 109.02 474.52 107.82H481.84C481.28 109.7 480.36 111.4 479.08 112.92C477.8 114.4 476.22 115.58 474.34 116.46C472.46 117.3 470.34 117.72 467.98 117.72Z" fill="#1B3139"/>
</svg>
