<svg width="421" height="80" viewBox="0 0 421 80" fill="none" xmlns="http://www.w3.org/2000/svg">
<rect width="421" height="80" fill="white"/>
<path d="M40 65H80V80H55C46.7157 80 40 73.2843 40 65Z" fill="#FABFBA"/>
<path d="M40 65L0 65L1.31134e-06 50L25 50C33.2843 50 40 56.7157 40 65Z" fill="#FABFBA"/>
<path d="M40 43.3333H80V58.3333H55C46.7157 58.3333 40 51.6176 40 43.3333Z" fill="#FABFBA"/>
<path d="M40 43.3333L0 43.3333L1.31134e-06 28.3333L25 28.3333C33.2843 28.3333 40 35.0491 40 43.3333Z" fill="#FABFBA"/>
<path d="M80 11.971C75.217 14.4689 71.6081 18.922 71.6081 24.1374V58.3333H57.2087V26.9987C57.2086 17.5103 49.5159 9.81831 40.0277 9.81771C31.15 9.81811 22.9411 16.6667 22.9411 25.1904V43.3333H8.54167V25.3906H8.46354C8.46354 19.8132 4.91596 14.859 0 12.1077V0H80V11.971Z" fill="#FF5F46"/>
<path d="M120.26 60V18H127.46V54.36H146.18V60H120.26ZM161.23 60.72C158.75 60.72 156.69 60.3 155.05 59.46C153.41 58.62 152.19 57.5 151.39 56.1C150.59 54.7 150.19 53.18 150.19 51.54C150.19 49.62 150.67 47.96 151.63 46.56C152.63 45.16 154.09 44.08 156.01 43.32C157.93 42.52 160.29 42.12 163.09 42.12H170.71C170.71 40.52 170.49 39.2 170.05 38.16C169.61 37.08 168.93 36.28 168.01 35.76C167.09 35.24 165.91 34.98 164.47 34.98C162.83 34.98 161.43 35.36 160.27 36.12C159.11 36.84 158.39 37.96 158.11 39.48H151.03C151.27 37.32 151.99 35.48 153.19 33.96C154.39 32.4 155.97 31.2 157.93 30.36C159.93 29.48 162.11 29.04 164.47 29.04C167.31 29.04 169.73 29.54 171.73 30.54C173.73 31.5 175.25 32.9 176.29 34.74C177.37 36.54 177.91 38.72 177.91 41.28V60H171.79L171.07 55.14C170.67 55.94 170.15 56.68 169.51 57.36C168.91 58.04 168.21 58.64 167.41 59.16C166.61 59.64 165.69 60.02 164.65 60.3C163.65 60.58 162.51 60.72 161.23 60.72ZM162.85 55.02C164.01 55.02 165.03 54.82 165.91 54.42C166.83 53.98 167.61 53.38 168.25 52.62C168.93 51.82 169.45 50.94 169.81 49.98C170.17 49.02 170.41 48 170.53 46.92V46.8H163.87C162.47 46.8 161.31 46.98 160.39 47.34C159.47 47.66 158.81 48.14 158.41 48.78C158.01 49.42 157.81 50.16 157.81 51C157.81 51.84 158.01 52.56 158.41 53.16C158.81 53.76 159.39 54.22 160.15 54.54C160.91 54.86 161.81 55.02 162.85 55.02ZM203.303 60L189.923 43.44L201.923 29.76H210.503L195.563 46.38V40.8L212.303 60H203.303ZM183.803 60V16.8H191.003V60H183.803ZM227.1 60.72C224.1 60.72 221.46 60.08 219.18 58.8C216.9 57.48 215.12 55.64 213.84 53.28C212.56 50.92 211.92 48.2 211.92 45.12C211.92 41.92 212.54 39.12 213.78 36.72C215.06 34.32 216.84 32.44 219.12 31.08C221.44 29.72 224.12 29.04 227.16 29.04C230.12 29.04 232.7 29.7 234.9 31.02C237.1 32.34 238.8 34.12 240 36.36C241.2 38.56 241.8 41.04 241.8 43.8C241.8 44.2 241.8 44.64 241.8 45.12C241.8 45.6 241.76 46.1 241.68 46.62H217.08V42H234.54C234.46 39.8 233.72 38.08 232.32 36.84C230.92 35.56 229.18 34.92 227.1 34.92C225.62 34.92 224.26 35.26 223.02 35.94C221.78 36.62 220.8 37.64 220.08 39C219.36 40.32 219 42 219 44.04V45.78C219 47.66 219.34 49.28 220.02 50.64C220.74 52 221.7 53.04 222.9 53.76C224.14 54.44 225.52 54.78 227.04 54.78C228.72 54.78 230.1 54.42 231.18 53.7C232.3 52.98 233.12 52.02 233.64 50.82H240.96C240.4 52.7 239.48 54.4 238.2 55.92C236.92 57.4 235.34 58.58 233.46 59.46C231.58 60.3 229.46 60.72 227.1 60.72ZM263.928 60.72C262.328 60.72 260.888 60.5 259.608 60.06C258.328 59.66 257.208 59.1 256.248 58.38C255.288 57.62 254.488 56.76 253.848 55.8L253.068 60H246.648V16.8H253.848V34.2C254.808 32.72 256.108 31.5 257.748 30.54C259.388 29.54 261.428 29.04 263.868 29.04C266.708 29.04 269.208 29.74 271.368 31.14C273.568 32.5 275.288 34.38 276.528 36.78C277.808 39.14 278.448 41.86 278.448 44.94C278.448 47.94 277.828 50.64 276.588 53.04C275.348 55.44 273.628 57.32 271.428 58.68C269.268 60.04 266.768 60.72 263.928 60.72ZM262.428 54.48C264.108 54.48 265.608 54.08 266.928 53.28C268.248 52.44 269.268 51.32 269.988 49.92C270.748 48.48 271.128 46.8 271.128 44.88C271.128 43 270.748 41.34 269.988 39.9C269.268 38.46 268.248 37.34 266.928 36.54C265.608 35.74 264.108 35.34 262.428 35.34C260.708 35.34 259.188 35.74 257.868 36.54C256.588 37.34 255.568 38.46 254.808 39.9C254.088 41.34 253.728 43 253.728 44.88C253.728 46.8 254.088 48.48 254.808 49.92C255.568 51.32 256.588 52.44 257.868 53.28C259.188 54.08 260.708 54.48 262.428 54.48ZM283.637 60V29.76H290.057L290.717 35.4C291.437 34.08 292.337 32.96 293.417 32.04C294.497 31.08 295.757 30.34 297.197 29.82C298.677 29.3 300.297 29.04 302.057 29.04V36.66H299.537C298.337 36.66 297.197 36.82 296.117 37.14C295.037 37.42 294.097 37.9 293.297 38.58C292.537 39.22 291.937 40.12 291.497 41.28C291.057 42.4 290.837 43.82 290.837 45.54V60H283.637ZM305.985 60V29.76H313.185V60H305.985ZM309.585 24.96C308.265 24.96 307.165 24.56 306.285 23.76C305.445 22.92 305.025 21.9 305.025 20.7C305.025 19.46 305.445 18.46 306.285 17.7C307.165 16.9 308.265 16.5 309.585 16.5C310.905 16.5 311.985 16.9 312.825 17.7C313.705 18.46 314.145 19.46 314.145 20.7C314.145 21.9 313.705 22.92 312.825 23.76C311.985 24.56 310.905 24.96 309.585 24.96ZM333.145 60.72C330.345 60.72 327.845 60.04 325.645 58.68C323.445 57.32 321.725 55.44 320.485 53.04C319.285 50.64 318.685 47.92 318.685 44.88C318.685 41.84 319.305 39.14 320.545 36.78C321.785 34.38 323.505 32.5 325.705 31.14C327.945 29.74 330.465 29.04 333.265 29.04C335.545 29.04 337.525 29.48 339.205 30.36C340.925 31.2 342.285 32.4 343.285 33.96V16.8H350.485V60H344.005L343.285 55.62C342.645 56.5 341.865 57.34 340.945 58.14C340.025 58.9 338.925 59.52 337.645 60C336.365 60.48 334.865 60.72 333.145 60.72ZM334.645 54.48C336.365 54.48 337.885 54.08 339.205 53.28C340.525 52.44 341.545 51.3 342.265 49.86C342.985 48.42 343.345 46.76 343.345 44.88C343.345 43 342.985 41.34 342.265 39.9C341.545 38.46 340.525 37.34 339.205 36.54C337.885 35.74 336.365 35.34 334.645 35.34C333.005 35.34 331.525 35.74 330.205 36.54C328.885 37.34 327.845 38.46 327.085 39.9C326.365 41.34 326.005 43 326.005 44.88C326.005 46.76 326.365 48.42 327.085 49.86C327.845 51.3 328.885 52.44 330.205 53.28C331.525 54.08 333.005 54.48 334.645 54.48ZM369.414 73.92C366.574 73.92 364.074 73.56 361.914 72.84C359.794 72.16 358.134 71.1 356.934 69.66C355.774 68.26 355.194 66.5 355.194 64.38C355.194 63.14 355.494 61.92 356.094 60.72C356.734 59.56 357.674 58.48 358.914 57.48C360.194 56.44 361.814 55.54 363.774 54.78L366.954 58.26C365.034 58.94 363.694 59.76 362.934 60.72C362.174 61.68 361.794 62.66 361.794 63.66C361.794 64.7 362.114 65.56 362.754 66.24C363.434 66.96 364.334 67.5 365.454 67.86C366.614 68.22 367.914 68.4 369.354 68.4C370.754 68.4 371.974 68.2 373.014 67.8C374.054 67.44 374.854 66.92 375.414 66.24C376.014 65.56 376.314 64.74 376.314 63.78C376.314 62.58 375.894 61.6 375.054 60.84C374.214 60.12 372.554 59.68 370.074 59.52C367.954 59.36 366.094 59.14 364.494 58.86C362.894 58.54 361.514 58.18 360.354 57.78C359.234 57.38 358.274 56.94 357.474 56.46C356.674 55.94 356.014 55.42 355.494 54.9V53.52L361.794 46.92L367.134 48.66L360.054 55.56L361.914 52.08C362.314 52.36 362.714 52.62 363.114 52.86C363.554 53.1 364.094 53.32 364.734 53.52C365.414 53.68 366.294 53.84 367.374 54C368.454 54.16 369.854 54.32 371.574 54.48C374.254 54.68 376.434 55.16 378.114 55.92C379.794 56.68 381.034 57.7 381.834 58.98C382.634 60.26 383.034 61.8 383.034 63.6C383.034 65.36 382.534 67.02 381.534 68.58C380.574 70.14 379.094 71.42 377.094 72.42C375.094 73.42 372.534 73.92 369.414 73.92ZM369.414 50.94C366.894 50.94 364.714 50.46 362.874 49.5C361.074 48.5 359.694 47.18 358.734 45.54C357.774 43.86 357.294 42.02 357.294 40.02C357.294 37.98 357.774 36.14 358.734 34.5C359.694 32.86 361.074 31.54 362.874 30.54C364.714 29.54 366.894 29.04 369.414 29.04C371.934 29.04 374.094 29.54 375.894 30.54C377.694 31.54 379.074 32.86 380.034 34.5C380.994 36.14 381.474 37.98 381.474 40.02C381.474 42.02 380.994 43.86 380.034 45.54C379.074 47.18 377.694 48.5 375.894 49.5C374.094 50.46 371.934 50.94 369.414 50.94ZM369.414 45.36C371.134 45.36 372.514 44.9 373.554 43.98C374.594 43.06 375.114 41.74 375.114 40.02C375.114 38.3 374.594 37 373.554 36.12C372.514 35.2 371.134 34.74 369.414 34.74C367.694 34.74 366.294 35.2 365.214 36.12C364.134 37 363.594 38.3 363.594 40.02C363.594 41.74 364.134 43.06 365.214 43.98C366.294 44.9 367.694 45.36 369.414 45.36ZM374.394 35.04L373.014 29.76H385.434V34.26L374.394 35.04ZM402.98 60.72C399.98 60.72 397.34 60.08 395.06 58.8C392.78 57.48 391 55.64 389.72 53.28C388.44 50.92 387.8 48.2 387.8 45.12C387.8 41.92 388.42 39.12 389.66 36.72C390.94 34.32 392.72 32.44 395 31.08C397.32 29.72 400 29.04 403.04 29.04C406 29.04 408.58 29.7 410.78 31.02C412.98 32.34 414.68 34.12 415.88 36.36C417.08 38.56 417.68 41.04 417.68 43.8C417.68 44.2 417.68 44.64 417.68 45.12C417.68 45.6 417.64 46.1 417.56 46.62H392.96V42H410.42C410.34 39.8 409.6 38.08 408.2 36.84C406.8 35.56 405.06 34.92 402.98 34.92C401.5 34.92 400.14 35.26 398.9 35.94C397.66 36.62 396.68 37.64 395.96 39C395.24 40.32 394.88 42 394.88 44.04V45.78C394.88 47.66 395.22 49.28 395.9 50.64C396.62 52 397.58 53.04 398.78 53.76C400.02 54.44 401.4 54.78 402.92 54.78C404.6 54.78 405.98 54.42 407.06 53.7C408.18 52.98 409 52.02 409.52 50.82H416.84C416.28 52.7 415.36 54.4 414.08 55.92C412.8 57.4 411.22 58.58 409.34 59.46C407.46 60.3 405.34 60.72 402.98 60.72Z" fill="#1B3139"/>
</svg>
