<svg width="384" height="384" viewBox="0 0 384 384" fill="none" xmlns="http://www.w3.org/2000/svg">
<path d="M192 312H384V384H264C224.236 384 192 351.764 192 312Z" fill="#FABFBA"/>
<path d="M192 312L0 312L6.29444e-06 240L120 240C159.765 240 192 272.236 192 312Z" fill="#FABFBA"/>
<path d="M192 208H384V280H264C224.236 280 192 247.764 192 208Z" fill="#FABFBA"/>
<path d="M192 208L0 208L6.29444e-06 136L120 136C159.765 136 192 168.236 192 208Z" fill="#FABFBA"/>
<path d="M384 57.4609C361.041 69.4509 343.719 90.8255 343.719 115.859V280H274.602V129.594C274.601 84.0495 237.676 47.1279 192.133 47.125C149.52 47.1269 110.117 80 110.117 120.914V208H41V121.875H40.625C40.625 95.1032 23.5966 71.3231 0 58.1172V0H384V57.4609Z" fill="#FF5F46"/>
</svg>
