<svg xmlns="http://www.w3.org/2000/svg" version="1.1" xmlns:xlink="http://www.w3.org/1999/xlink" xmlns:svgjs="http://svgjs.dev/svgjs" width="1500" height="340" viewBox="0 0 1500 340"><g transform="matrix(1,0,0,1,-0.9090909090907644,-0.3751731161110001)">
    <svg viewBox="0 0 396 90" data-background-color="#ffffff" preserveAspectRatio="none" height="340" width="1500" xmlns="http://www.w3.org/2000/svg" xmlns:xlink="http://www.w3.org/1999/xlink">
        <g id="tight-bounds" transform="matrix(1,0,0,1,0.23999999999995225,0.09931053073526641)">
            <svg viewBox="0 0 395.52 89.80137893852948" height="89.80137893852948" width="395.52"><g>
                <svg viewBox="0 0 538.8530830579805 122.34463466799303" height="89.80137893852948" width="395.52">
                    <g transform="matrix(1,0,0,1,143.33308305798053,16.908701318080084)">
                        <svg viewBox="0 0 395.52 88.52723203183287" height="88.52723203183287" width="395.52">
                            <g id="textblocktransform"><svg viewBox="0 0 395.52 88.52723203183287" height="88.52723203183287" width="395.52" id="textblock"><g>
                                <svg viewBox="0 0 395.52 88.52723203183287" height="88.52723203183287" width="395.52">
                                    <g transform="matrix(1,0,0,1,0,0)"><svg width="395.52" viewBox="3.3 -35.5 201.04 45" height="88.52723203183287" data-palette-color="#111111">
                                        </svg></g></svg></g></svg></g></svg></g><g>
                    <svg viewBox="0 0 122.43392822883357 122.34463466799303" height="122.34463466799303" width="122.43392822883357"><g>
                        <svg xmlns="http://www.w3.org/2000/svg" xmlns:xlink="http://www.w3.org/1999/xlink" version="1.1" x="0" y="0" viewBox="1.9895641246523057 2 28.020435875347697 28" enable-background="new 0 0 32 32" xml:space="preserve" height="122.34463466799303" width="122.43392822883357" class="icon-icon-0" data-fill-palette-color="accent" id="icon-0"><g fill="#f56607" data-fill-palette-color="accent">
                            <path d="M29.891 28.525c-0.404-1.324-2.9-9.619-2.9-12.525 0-3.146 2.925-12.608 2.955-12.704 0.094-0.303 0.038-0.634-0.15-0.89S29.308 2 28.99 2h-26C2.672 2 2.373 2.15 2.185 2.406S1.94 2.993 2.035 3.296C2.064 3.392 4.99 12.854 4.99 16c0 3.146-2.926 12.608-2.955 12.703-0.095 0.304-0.039 0.634 0.149 0.89S2.672 30 2.99 30h6.997c0.001 0 0.002 0 0.003 0s0.002 0 0.003 0h11.993c0.001 0 0.002 0 0.003 0s0.002 0 0.004 0h6.997c0.007-0.001 0.013 0 0.02 0 0.553 0 1-0.448 1-1C30.01 28.828 29.967 28.666 29.891 28.525zM18.223 18.231C17.316 18.082 16.559 18 15.99 18c-0.566 0-1.323 0.082-2.229 0.231C13.901 17.37 13.99 16.596 13.99 16s-0.089-1.368-0.229-2.228C14.675 13.921 15.421 14 15.99 14c0.565 0 1.313-0.08 2.232-0.229C18.08 14.637 17.99 15.41 17.99 16S18.08 17.364 18.223 18.231zM18.629 11.671C17.475 11.885 16.578 12 15.99 12c-0.592 0-1.486-0.115-2.633-0.329C12.749 8.862 11.852 5.724 11.338 4h9.306C20.133 5.725 19.238 8.868 18.629 11.671zM11.99 16c0 0.661-0.129 1.592-0.326 2.644-1.48 0.32-3.229 0.759-5.232 1.313C6.761 18.39 6.99 16.96 6.99 16c0-0.959-0.229-2.385-0.557-3.947 1.507 0.42 3.425 0.925 5.233 1.316C11.863 14.415 11.99 15.341 11.99 16zM13.356 20.332C14.771 20.062 15.563 20 15.99 20c0.594 0 1.507 0.119 2.64 0.335 0.609 2.802 1.504 5.941 2.014 7.665h-9.306C11.852 26.276 12.748 23.14 13.356 20.332zM19.99 16c0-0.65 0.129-1.578 0.327-2.629 1.797-0.391 3.718-0.896 5.229-1.318C25.218 13.616 24.99 15.041 24.99 16c0 0.96 0.229 2.39 0.559 3.956-2.015-0.558-3.761-0.995-5.229-1.313C20.12 17.586 19.99 16.652 19.99 16zM26.055 9.83c-1.351 0.389-3.338 0.937-5.277 1.387C21.438 8.39 22.33 5.337 22.731 4h4.912C27.242 5.354 26.605 7.584 26.055 9.83zM9.25 4c0.402 1.334 1.298 4.385 1.959 7.217-1.952-0.453-3.938-0.999-5.284-1.387C5.375 7.584 4.737 5.354 4.336 4H9.25zM5.924 22.173c1.975-0.56 3.768-1.029 5.283-1.381C10.546 23.621 9.652 26.667 9.25 28H4.336C4.737 26.646 5.374 24.418 5.924 22.173zM22.731 28c-0.4-1.336-1.291-4.384-1.952-7.209 1.499 0.348 3.276 0.816 5.277 1.384 0.55 2.244 1.187 4.471 1.587 5.825H22.731z" fill="#f56607" data-fill-palette-color="accent">
                            </path>
                        </g>
                        </svg></g></svg></g></svg></g>
                <defs></defs></svg>
            <rect width="395.52" height="89.80137893852948" fill="none" stroke="none" visibility="hidden"></rect></g></svg></g></svg>
