<svg viewBox="0 0 349.5 345.99118942731275" xmlns:xlink="http://www.w3.org/1999/xlink" version="1.1" xmlns="http://www.w3.org/2000/svg" style="max-height: 500px" width="349.5" height="345.99118942731275"><g transform="matrix(1,0,0,1,-0.9090909090907644,-0.3751731161110001)"><svg xmlns:xlink="http://www.w3.org/1999/xlink" xmlns="http://www.w3.org/2000/svg" width="1500" height="340" preserveAspectRatio="xMidYMid meet" data-background-color="#ffffff" viewBox="0 0 396 90"><g transform="matrix(1,0,0,1,0.23999999999995225,0.09931053073526641)" id="tight-bounds"><svg width="395.52" height="89.80137893852948" viewBox="0 0 395.52 89.80137893852948"><g><svg width="395.52" height="89.80137893852948" viewBox="0 0 538.8530830579805 122.34463466799303"><g transform="matrix(1,0,0,1,143.33308305798053,16.908701318080084)"><svg width="395.52" height="88.52723203183287" viewBox="0 0 395.52 88.52723203183287"><g id="textblocktransform"><svg id="textblock" width="395.52" height="88.52723203183287" viewBox="0 0 395.52 88.52723203183287"><g><svg width="395.52" height="88.52723203183287" viewBox="0 0 395.52 88.52723203183287"><g transform="matrix(1,0,0,1,0,0)"><svg data-palette-color="#111111" height="88.52723203183287" viewBox="3.3 -35.5 201.04 45" width="395.52"><path id="text-0" data-fill-palette-color="primary" class="wordmark-text-0" fill="#111111" transform="matrix(1,0,0,1,0,0)" opacity="1" d="M8.85 0L4.5 0Q4 0 3.65-0.35 3.3-0.7 3.3-1.2L3.3-1.2 3.3-24.75Q3.3-25.3 3.65-25.65 4-26 4.5-26L4.5-26 8.55-26Q9.05-26 9.43-25.65 9.8-25.3 9.8-24.75L9.8-24.75 9.8-22.7Q10.95-24.3 12.78-25.15 14.6-26 17-26L17-26 19.05-26Q19.6-26 19.93-25.65 20.25-25.3 20.25-24.8L20.25-24.8 20.25-21.2Q20.25-20.7 19.93-20.35 19.6-20 19.05-20L19.05-20 15.15-20Q12.75-20 11.43-18.68 10.1-17.35 10.1-14.95L10.1-14.95 10.1-1.2Q10.1-0.7 9.75-0.35 9.4 0 8.85 0L8.85 0ZM35.35 0.5L35.35 0.5Q29.8 0.5 26.55-2.7 23.3-5.9 23.05-11.8L23.05-11.8Q23-12.3 23-13.08 23-13.85 23.05-14.3L23.05-14.3Q23.25-18.1 24.77-20.83 26.3-23.55 29-25.03 31.7-26.5 35.35-26.5L35.35-26.5Q39.4-26.5 42.15-24.83 44.9-23.15 46.3-20.18 47.7-17.2 47.7-13.3L47.7-13.3 47.7-12.25Q47.7-11.75 47.35-11.4 47-11.05 46.45-11.05L46.45-11.05 29.85-11.05Q29.85-11.05 29.85-10.9 29.85-10.75 29.85-10.65L29.85-10.65Q29.9-8.9 30.52-7.43 31.15-5.95 32.37-5.05 33.6-4.15 35.3-4.15L35.3-4.15Q36.7-4.15 37.65-4.58 38.6-5 39.2-5.55 39.8-6.1 40.05-6.45L40.05-6.45Q40.5-7.05 40.77-7.18 41.05-7.3 41.6-7.3L41.6-7.3 45.9-7.3Q46.4-7.3 46.72-7 47.05-6.7 47-6.25L47-6.25Q46.95-5.45 46.17-4.3 45.4-3.15 43.95-2.05 42.5-0.95 40.32-0.23 38.15 0.5 35.35 0.5ZM29.85-15.4L29.85-15.25 40.9-15.25 40.9-15.4Q40.9-17.35 40.25-18.82 39.6-20.3 38.35-21.13 37.1-21.95 35.35-21.95L35.35-21.95Q33.6-21.95 32.35-21.13 31.1-20.3 30.47-18.82 29.85-17.35 29.85-15.4L29.85-15.4ZM58.4 0L54.2 0Q53.7 0 53.35-0.35 53-0.7 53-1.2L53-1.2 53-24.8Q53-25.3 53.35-25.65 53.7-26 54.2-26L54.2-26 58.1-26Q58.6-26 58.95-25.65 59.3-25.3 59.3-24.8L59.3-24.8 59.3-23.1Q60.35-24.5 62.12-25.48 63.9-26.45 66.35-26.5L66.35-26.5Q72.05-26.6 74.3-22.05L74.3-22.05Q75.45-24.05 77.62-25.28 79.8-26.5 82.45-26.5L82.45-26.5Q85.05-26.5 87.17-25.3 89.3-24.1 90.52-21.68 91.75-19.25 91.75-15.55L91.75-15.55 91.75-1.2Q91.75-0.7 91.4-0.35 91.05 0 90.55 0L90.55 0 86.45 0Q85.95 0 85.59-0.35 85.25-0.7 85.25-1.2L85.25-1.2 85.25-15.15Q85.25-17.4 84.59-18.73 83.95-20.05 82.84-20.6 81.75-21.15 80.4-21.15L80.4-21.15Q79.3-21.15 78.2-20.6 77.1-20.05 76.4-18.73 75.7-17.4 75.7-15.15L75.7-15.15 75.7-1.2Q75.7-0.7 75.35-0.35 75 0 74.5 0L74.5 0 70.4 0Q69.9 0 69.55-0.35 69.2-0.7 69.2-1.2L69.2-1.2 69.2-15.15Q69.2-17.4 68.5-18.73 67.8-20.05 66.7-20.6 65.6-21.15 64.35-21.15L64.35-21.15Q63.2-21.15 62.1-20.58 61-20 60.3-18.7 59.6-17.4 59.6-15.15L59.6-15.15 59.6-1.2Q59.6-0.7 59.25-0.35 58.9 0 58.4 0L58.4 0ZM109.59 0.5L109.59 0.5Q105.59 0.5 102.87-0.9 100.14-2.3 98.72-4.85 97.29-7.4 97.09-10.8L97.09-10.8Q97.04-11.7 97.04-13 97.04-14.3 97.09-15.2L97.09-15.2Q97.29-18.65 98.77-21.18 100.24-23.7 102.97-25.1 105.69-26.5 109.59-26.5L109.59-26.5Q113.49-26.5 116.22-25.1 118.94-23.7 120.42-21.18 121.89-18.65 122.09-15.2L122.09-15.2Q122.14-14.3 122.14-13 122.14-11.7 122.09-10.8L122.09-10.8Q121.89-7.4 120.47-4.85 119.04-2.3 116.32-0.9 113.59 0.5 109.59 0.5ZM109.59-4.45L109.59-4.45Q112.24-4.45 113.69-6.13 115.14-7.8 115.29-11.05L115.29-11.05Q115.34-11.8 115.34-13 115.34-14.2 115.29-14.95L115.29-14.95Q115.14-18.2 113.69-19.88 112.24-21.55 109.59-21.55L109.59-21.55Q106.94-21.55 105.49-19.88 104.04-18.2 103.89-14.95L103.89-14.95Q103.84-14.2 103.84-13 103.84-11.8 103.89-11.05L103.89-11.05Q104.04-7.8 105.49-6.13 106.94-4.45 109.59-4.45ZM133.24 0L128.89 0Q128.39 0 128.04-0.35 127.69-0.7 127.69-1.2L127.69-1.2 127.69-24.75Q127.69-25.3 128.04-25.65 128.39-26 128.89-26L128.89-26 132.94-26Q133.44-26 133.82-25.65 134.19-25.3 134.19-24.75L134.19-24.75 134.19-22.7Q135.34-24.3 137.17-25.15 138.99-26 141.39-26L141.39-26 143.44-26Q143.99-26 144.32-25.65 144.64-25.3 144.64-24.8L144.64-24.8 144.64-21.2Q144.64-20.7 144.32-20.35 143.99-20 143.44-20L143.44-20 139.54-20Q137.14-20 135.82-18.68 134.49-17.35 134.49-14.95L134.49-14.95 134.49-1.2Q134.49-0.7 134.14-0.35 133.79 0 133.24 0L133.24 0ZM154.04 9.5L149.79 9.5Q149.29 9.5 148.94 9.15 148.59 8.8 148.59 8.3L148.59 8.3 148.59-24.8Q148.59-25.3 148.94-25.65 149.29-26 149.79-26L149.79-26 153.74-26Q154.29-26 154.61-25.65 154.94-25.3 154.94-24.8L154.94-24.8 154.94-22.8Q156.14-24.4 158.09-25.45 160.04-26.5 162.94-26.5L162.94-26.5Q165.59-26.5 167.54-25.65 169.49-24.8 170.79-23.23 172.09-21.65 172.79-19.5 173.49-17.35 173.59-14.75L173.59-14.75Q173.64-13.9 173.64-13 173.64-12.1 173.59-11.2L173.59-11.2Q173.54-8.7 172.84-6.58 172.14-4.45 170.81-2.88 169.49-1.3 167.54-0.4 165.59 0.5 162.94 0.5L162.94 0.5Q160.24 0.5 158.34-0.48 156.44-1.45 155.24-3.05L155.24-3.05 155.24 8.3Q155.24 8.8 154.91 9.15 154.59 9.5 154.04 9.5L154.04 9.5ZM161.09-4.85L161.09-4.85Q163.24-4.85 164.44-5.78 165.64-6.7 166.19-8.2 166.74-9.7 166.84-11.5L166.84-11.5Q166.89-13 166.84-14.5L166.84-14.5Q166.74-16.3 166.19-17.8 165.64-19.3 164.44-20.23 163.24-21.15 161.09-21.15L161.09-21.15Q159.04-21.15 157.76-20.2 156.49-19.25 155.91-17.78 155.34-16.3 155.24-14.75L155.24-14.75Q155.19-13.85 155.19-12.85 155.19-11.85 155.24-10.9L155.24-10.9Q155.29-9.4 155.94-8.03 156.59-6.65 157.84-5.75 159.09-4.85 161.09-4.85ZM184.94 0L180.49 0Q179.99 0 179.63-0.35 179.28-0.7 179.28-1.2L179.28-1.2 179.28-34.3Q179.28-34.8 179.63-35.15 179.99-35.5 180.49-35.5L180.49-35.5 184.94-35.5Q185.49-35.5 185.81-35.15 186.13-34.8 186.13-34.3L186.13-34.3 186.13-22.9Q187.49-24.5 189.44-25.5 191.38-26.5 194.24-26.5L194.24-26.5Q197.28-26.5 199.56-25.13 201.84-23.75 203.09-21.25 204.34-18.75 204.34-15.25L204.34-15.25 204.34-1.2Q204.34-0.7 203.99-0.35 203.63 0 203.13 0L203.13 0 198.63 0Q198.13 0 197.78-0.35 197.44-0.7 197.44-1.2L197.44-1.2 197.44-14.95Q197.44-17.85 196.01-19.5 194.59-21.15 191.88-21.15L191.88-21.15Q189.28-21.15 187.71-19.5 186.13-17.85 186.13-14.95L186.13-14.95 186.13-1.2Q186.13-0.7 185.81-0.35 185.49 0 184.94 0L184.94 0Z"/></svg></g></svg></g></svg></g></svg></g><g><svg width="122.43392822883357" height="122.34463466799303" viewBox="0 0 122.43392822883357 122.34463466799303"><g><svg id="icon-0" data-fill-palette-color="accent" class="icon-icon-0" width="122.43392822883357" height="122.34463466799303" xml:space="preserve" viewBox="1.9895641246523057 2 28.020435875347697 28" y="0" x="0" version="1.1" xmlns:xlink="http://www.w3.org/1999/xlink" xmlns="http://www.w3.org/2000/svg"><g data-fill-palette-color="accent" fill="#f56607"><path data-fill-palette-color="accent" fill="#f56607" d="M29.891 28.525c-0.404-1.324-2.9-9.619-2.9-12.525 0-3.146 2.925-12.608 2.955-12.704 0.094-0.303 0.038-0.634-0.15-0.89S29.308 2 28.99 2h-26C2.672 2 2.373 2.15 2.185 2.406S1.94 2.993 2.035 3.296C2.064 3.392 4.99 12.854 4.99 16c0 3.146-2.926 12.608-2.955 12.703-0.095 0.304-0.039 0.634 0.149 0.89S2.672 30 2.99 30h6.997c0.001 0 0.002 0 0.003 0s0.002 0 0.003 0h11.993c0.001 0 0.002 0 0.003 0s0.002 0 0.004 0h6.997c0.007-0.001 0.013 0 0.02 0 0.553 0 1-0.448 1-1C30.01 28.828 29.967 28.666 29.891 28.525zM18.223 18.231C17.316 18.082 16.559 18 15.99 18c-0.566 0-1.323 0.082-2.229 0.231C13.901 17.37 13.99 16.596 13.99 16s-0.089-1.368-0.229-2.228C14.675 13.921 15.421 14 15.99 14c0.565 0 1.313-0.08 2.232-0.229C18.08 14.637 17.99 15.41 17.99 16S18.08 17.364 18.223 18.231zM18.629 11.671C17.475 11.885 16.578 12 15.99 12c-0.592 0-1.486-0.115-2.633-0.329C12.749 8.862 11.852 5.724 11.338 4h9.306C20.133 5.725 19.238 8.868 18.629 11.671zM11.99 16c0 0.661-0.129 1.592-0.326 2.644-1.48 0.32-3.229 0.759-5.232 1.313C6.761 18.39 6.99 16.96 6.99 16c0-0.959-0.229-2.385-0.557-3.947 1.507 0.42 3.425 0.925 5.233 1.316C11.863 14.415 11.99 15.341 11.99 16zM13.356 20.332C14.771 20.062 15.563 20 15.99 20c0.594 0 1.507 0.119 2.64 0.335 0.609 2.802 1.504 5.941 2.014 7.665h-9.306C11.852 26.276 12.748 23.14 13.356 20.332zM19.99 16c0-0.65 0.129-1.578 0.327-2.629 1.797-0.391 3.718-0.896 5.229-1.318C25.218 13.616 24.99 15.041 24.99 16c0 0.96 0.229 2.39 0.559 3.956-2.015-0.558-3.761-0.995-5.229-1.313C20.12 17.586 19.99 16.652 19.99 16zM26.055 9.83c-1.351 0.389-3.338 0.937-5.277 1.387C21.438 8.39 22.33 5.337 22.731 4h4.912C27.242 5.354 26.605 7.584 26.055 9.83zM9.25 4c0.402 1.334 1.298 4.385 1.959 7.217-1.952-0.453-3.938-0.999-5.284-1.387C5.375 7.584 4.737 5.354 4.336 4H9.25zM5.924 22.173c1.975-0.56 3.768-1.029 5.283-1.381C10.546 23.621 9.652 26.667 9.25 28H4.336C4.737 26.646 5.374 24.418 5.924 22.173zM22.731 28c-0.4-1.336-1.291-4.384-1.952-7.209 1.499 0.348 3.276 0.816 5.277 1.384 0.55 2.244 1.187 4.471 1.587 5.825H22.731z"/></g></svg></g></svg></g></svg></g><defs/></svg><rect visibility="hidden" stroke="none" fill="none" height="89.80137893852948" width="395.52"/></g></svg></g></svg>